<?xml version="1.0" encoding="UTF-8" standalone="no"?>
<!-- Generator: Adobe Illustrator 26.0.2, SVG Export Plug-In . SVG Version: 6.00 Build 0)  -->

<svg
   version="1.1"
   id="Logotyper"
   x="0px"
   y="0px"
   viewBox="0 0 212.62141 203.36364"
   xml:space="preserve"
   sodipodi:docname="SU_logotyp_Portrait_Landscape.svg"
   inkscape:export-filename="SU_logotyp_Portrait_Landscape.pdf"
   inkscape:export-xdpi="96"
   inkscape:export-ydpi="96"
   inkscape:version="1.3.2 (091e20e, 2023-11-25, custom)"
   width="212.62141"
   height="203.36365"
   xmlns:inkscape="http://www.inkscape.org/namespaces/inkscape"
   xmlns:sodipodi="http://sodipodi.sourceforge.net/DTD/sodipodi-0.dtd"
   xmlns="http://www.w3.org/2000/svg"
   xmlns:svg="http://www.w3.org/2000/svg"><defs
   id="defs81" /><sodipodi:namedview
   id="namedview81"
   pagecolor="#ffffff"
   bordercolor="#000000"
   borderopacity="0.25"
   inkscape:showpageshadow="2"
   inkscape:pageopacity="0.0"
   inkscape:pagecheckerboard="0"
   inkscape:deskcolor="#d1d1d1"
   inkscape:zoom="0.69707506"
   inkscape:cx="106.87515"
   inkscape:cy="114.04798"
   inkscape:window-width="1920"
   inkscape:window-height="1009"
   inkscape:window-x="-8"
   inkscape:window-y="-8"
   inkscape:window-maximized="1"
   inkscape:current-layer="Logotyper" />
<style
   type="text/css"
   id="style1">
	.st0{fill:#002F5F;}
</style>
<g
   id="g62"
   transform="matrix(0.61431745,0,0,0.61431745,-28.657909,-30.513148)">
	<g
   id="g42">
		<path
   class="st0"
   d="m 197.86,67.86 c 0.15,0.16 0.07,0.27 -0.08,0.4 -0.28,0.22 -1.82,2.48 -1.99,2.76 -0.11,0.19 -0.13,-0.14 -0.07,-0.33 0.18,-0.53 0.7,-2.67 -1.1,-4.27 -1.28,-1.13 -3.25,-0.47 -3.97,0.6 -0.97,1.43 -0.99,2.73 0,6.47 1.03,3.9 0.6,5.33 -0.82,6.98 -1.32,1.52 -4.38,2.35 -7.08,0.48 -2.77,-1.93 -2.88,-2.37 -3.31,-2.54 -0.34,-0.14 -0.33,-0.41 0.01,-0.81 0.49,-0.58 2.13,-2.81 2.41,-3.23 0.19,-0.28 0.23,0.04 0.03,0.46 -0.26,0.57 -1.22,3.33 1.07,4.88 2.22,1.5 3.65,0.52 4.4,-0.37 0.83,-0.98 1.3,-1.93 0.14,-6.4 -1.23,-4.71 -0.38,-6.26 1.4,-7.65 1.84,-1.44 4.28,-1.53 6.27,0.04 1.07,0.84 1.61,1.43 2.02,1.82 0.23,0.22 0.35,0.47 0.47,0.58 0.08,0.08 0.13,0.04 0.2,0.13 z"
   id="path1" />
		<path
   class="st0"
   d="m 50.06,121.13 c 0.07,-0.16 0.25,-0.08 0.48,0 0.58,0.21 2.37,0.5 2.96,0.52 0.5,0.02 -0.34,0.38 -0.6,0.41 -0.7,0.09 -2.1,0.5 -2.72,2.83 -0.44,1.65 0.56,2.97 1.83,3.23 2.05,0.42 3.13,-0.36 6.14,-2.78 3.09,-2.48 5.18,-2.79 7.15,-2.23 1.83,0.52 4,2.93 3.28,6.02 -0.62,2.69 -1.36,3.19 -1.58,3.76 -0.13,0.35 -0.28,0.47 -0.79,0.33 -0.65,-0.18 -3.11,-0.54 -3.56,-0.59 -0.79,-0.09 -0.46,-0.39 0,-0.45 1.27,-0.16 4.03,-0.5 4.58,-3.22 0.41,-2.02 -0.95,-2.98 -2.14,-3.27 -1.26,-0.31 -2.62,-0.27 -6.16,2.66 -3.81,3.16 -5.44,3.15 -7.49,2.21 -2.17,-0.99 -3.08,-2.95 -2.61,-5.59 0.3,-1.68 1.04,-3.16 1.16,-3.33 0.07,-0.12 0.03,-0.4 0.07,-0.51 z"
   id="path2" />
		<path
   class="st0"
   d="m 166.92,232.31 c -0.27,0 -0.21,-0.23 -0.25,-0.39 0,0 -0.67,-2.24 -0.74,-2.42 -0.07,-0.2 0.13,-0.24 0.27,-0.08 0.35,0.39 1.8,1.75 3.86,1.23 1.63,-0.41 2.54,-2.16 2.13,-3.38 -0.54,-1.63 -2.14,-2.4 -5.65,-4.02 -3.17,-1.46 -4.19,-2.93 -4.48,-4.75 -0.34,-2.13 1.04,-5.14 4.07,-6.08 2.65,-0.82 3.29,-0.74 3.8,-1 0.4,-0.21 0.46,0.62 0.52,0.78 0.25,0.71 0.94,2.9 1.1,3.31 0.14,0.38 -0.14,0.52 -0.34,0.1 -0.26,-0.56 -2.16,-2.82 -4.55,-2.04 -2.36,0.77 -2.71,2.45 -2.38,3.57 0.37,1.24 0.59,2.22 5.03,4.09 4.33,1.82 5.17,3.69 5.19,5.78 0.02,2.33 -1.83,4.14 -4.29,4.76 -1.32,0.34 -1.58,0.24 -2.13,0.32 -0.32,0.05 -0.56,0.07 -0.73,0.09 -0.13,0.02 -0.22,0.13 -0.43,0.13 z"
   id="path3" />
		<path
   class="st0"
   d="m 199.96,72.75 c 0.48,-0.21 1.29,-0.63 1.78,-1.05 0.22,-0.18 0.65,0 0.92,0.26 0.18,0.18 4.03,3.99 4.8,4.81 1.03,1.1 4.46,4.24 4.9,4.67 0.44,0.42 0.85,0.66 0.42,0.95 -0.44,0.29 -1.39,0.83 -1.68,0.97 -0.26,0.13 -0.19,0.03 -0.19,-0.29 0,-0.33 -0.22,-0.81 -1.18,-1.81 -0.96,-1 -2.07,-2.15 -2.27,-2.31 -0.2,-0.16 -0.27,-0.19 -0.44,-0.04 -0.28,0.25 -4.06,4.09 -4.91,4.97 -0.78,0.8 -5.72,5.65 -5.86,6.41 -0.15,0.78 0.1,0.95 0.2,1.1 0.12,0.19 0.22,0.79 -0.02,0.54 -0.24,-0.24 -1.82,-1.97 -2.2,-2.32 -0.42,-0.39 -1.91,-1.65 -2.13,-1.85 -0.19,-0.17 -0.07,-0.33 0.32,-0.17 0.34,0.14 0.87,0.43 1.68,0.03 1.13,-0.56 5.36,-4.94 5.96,-5.54 0.6,-0.6 4.7,-4.87 4.82,-4.99 0.19,-0.2 0.25,-0.3 -0.02,-0.63 -0.29,-0.36 -2.8,-2.75 -3.32,-3.09 -0.46,-0.3 -0.75,-0.44 -1.15,-0.44 -0.35,-0.01 -0.78,-0.01 -0.43,-0.18 z"
   id="path4" />
		<path
   class="st0"
   d="m 59.12,103.48 c -0.36,-0.39 -1.21,-1.13 -1.7,-1.55 -0.22,-0.18 -0.1,-0.43 0.1,-0.75 0.13,-0.21 2.84,-5.18 3.45,-6.12 0.82,-1.27 3.26,-5.35 3.57,-5.88 0.32,-0.56 0.53,-0.93 0.79,-0.7 0.38,0.36 1.06,1.16 1.24,1.42 0.22,0.3 0.09,0.15 -0.23,0.15 -0.33,0 -0.73,0.64 -1.48,1.81 -0.74,1.17 -1.33,2.38 -1.44,2.62 -0.15,0.33 0.06,0.42 0.25,0.55 0.32,0.21 4.79,2.97 5.85,3.6 0.97,0.56 6.86,3.92 7.71,3.88 0.8,-0.04 0.79,-0.17 0.94,-0.28 0.23,-0.16 0.69,-0.23 0.46,0.02 -0.27,0.3 -1.28,1.79 -1.6,2.4 -0.38,0.68 -1.25,2.29 -1.36,2.54 -0.11,0.23 -0.12,-0.17 -0.1,-0.51 0.02,-0.41 0.27,-0.78 -0.34,-1.29 -1.08,-0.89 -6.23,-3.91 -6.96,-4.34 -0.72,-0.44 -5.76,-3.29 -6.11,-3.41 -0.26,-0.09 -0.48,-0.4 -0.68,-0.03 -0.25,0.46 -2.11,3.39 -2.27,4.41 -0.08,0.46 -0.11,0.63 -0.02,1.04 0.08,0.44 0.09,0.61 -0.07,0.42 z"
   id="path5" />
		<path
   class="st0"
   d="m 82.18,73.23 c -0.18,-0.72 -0.69,-1.4 -0.96,-1.95 -0.17,-0.33 -0.17,-0.32 0.26,-0.67 0.19,-0.15 4.7,-3.49 5.6,-4.17 1.22,-0.94 5.36,-3.73 5.86,-4.09 0.52,-0.38 1.05,-0.57 1.21,-0.12 0.18,0.5 0.68,1.67 0.76,1.97 0.12,0.45 -0.06,0.11 -0.38,-0.17 -0.25,-0.22 -0.7,-0.18 -1.85,0.59 -1.13,0.76 -2.77,1.84 -2.99,2.04 -0.27,0.24 -0.19,0.2 -0.09,0.4 0.26,0.51 3.23,4.88 4.06,5.98 0.69,0.9 4.8,6.72 5.58,7.06 0.53,0.24 0.85,0.07 0.98,0.03 0.24,-0.05 0.54,0.03 0.14,0.27 -0.35,0.2 -1.65,1.07 -2.08,1.36 -0.47,0.32 -1.6,1.19 -2,1.54 -0.48,0.41 -0.35,-0.03 -0.13,-0.32 0.19,-0.24 0.37,-0.47 0.06,-1.19 -0.59,-1.39 -3.58,-5.68 -4.34,-6.75 -0.49,-0.69 -4.41,-5.93 -4.66,-6.26 -0.14,-0.18 -0.19,-0.25 -0.53,0 -0.38,0.27 -3.39,2.57 -3.84,2.99 -0.35,0.33 -0.54,0.41 -0.57,0.86 -0.02,0.29 -0.01,0.94 -0.09,0.6 z"
   id="path6" />
		<path
   class="st0"
   d="m 220.14,90.91 c 2.78,2.9 5.01,9.77 -0.72,14.54 -4.87,4.06 -11.09,2.39 -13.67,-0.48 -2.4,-2.65 -4.85,-8.86 0.41,-14 5.11,-5 11.34,-2.82 13.98,-0.06 z m -11.63,2.38 c -4.15,4.04 -3.65,8.61 -1.52,10.77 2.1,2.13 6.69,2.5 10.69,-1.35 4.07,-3.9 3.68,-9.06 1.12,-11.31 -1.88,-1.65 -6.09,-2.18 -10.29,1.89 z"
   id="path7" />
		<path
   class="st0"
   d="m 225.74,184.69 c -1.29,4.13 -6.81,8.6 -13.44,5.64 -5.44,-2.43 -6.71,-8.49 -5.42,-12.17 1.19,-3.38 6.11,-8.35 12.5,-5.88 6.27,2.45 7.66,8.21 6.36,12.41 z m -7.31,-9.51 c -5.67,-2.03 -9.28,0.66 -10.2,3.36 -0.87,2.59 0.14,6.46 5.87,8.62 5.55,2.07 9.72,0.02 10.67,-3.73 0.35,-1.39 0.43,-5.82 -6.34,-8.25 z"
   id="path8" />
		<path
   class="st0"
   d="m 218.53,127.72 c -0.49,0.01 -2.01,-0.17 -2.51,-0.27 -0.57,-0.12 -0.65,-0.13 -0.83,-0.37 -0.15,-0.2 -2.57,-3.08 -2.57,-7.5 0,-4.84 2.3,-8.81 6.91,-10.17 4,-1.18 8.18,0.5 10.58,3.58 1.93,2.46 2.16,5.62 2.22,6.62 0.09,1.4 0.21,2.24 0.28,2.69 0.12,0.76 0.11,0.97 0.28,1.17 0.16,0.2 -0.07,0.39 -0.36,0.43 -0.34,0.04 -1.39,0.18 -1.95,0.32 -0.42,0.1 -1.27,0.34 -1.39,0.37 -0.61,0.14 -0.58,-0.02 -0.11,-0.37 0.35,-0.25 1.69,-0.92 1.92,-2.64 0.19,-1.53 0.44,-4.88 -1.98,-7.35 -1.79,-1.83 -4.8,-3.29 -9.11,-1.52 -3.42,1.4 -5.7,4.46 -5.72,8.06 -0.03,3.63 2.1,5.79 4.17,6.52 0.65,0.22 1.01,0.41 0.17,0.43 z"
   id="path9" />
		<path
   class="st0"
   d="m 234.25,130.06 c -0.01,0.74 0.34,4.05 0.48,4.71 0.17,0.78 -0.18,0.42 -0.23,0.14 -0.05,-0.24 -0.34,-0.72 -0.93,-0.78 -0.91,-0.09 -4.85,0.19 -8.1,0.6 1.47,1.57 6.37,5.09 7.03,5.55 0.8,0.57 1.59,1.07 1.84,1.06 0.17,-0.01 0.09,0.13 0.16,-0.09 0.1,-0.31 0.43,-1.29 0.37,0.21 -0.01,0.36 -0.03,1.44 0,1.71 0.04,0.28 0.13,1.03 0.15,1.19 0.11,0.81 -0.02,0.65 -0.62,-0.09 -0.89,-1.09 -2.81,-2.44 -3.5,-2.94 -0.66,-0.48 -4.88,-3.67 -4.88,-3.67 0,0 -6.05,5.75 -7.19,7 -0.4,0.44 -1.93,2.03 -2.36,2.98 -0.2,0.44 -0.35,0.65 -0.28,0.24 0.05,-0.27 0.24,-1.92 0.28,-2.64 0.04,-0.63 0.11,-2.6 0.11,-2.79 0.02,-0.39 0.18,-0.1 0.39,-0.04 0.31,0.08 2.02,-1.52 3.89,-3.36 1.42,-1.4 3.79,-3.96 3.96,-4.21 -0.51,-0.06 -5,0.5 -5.88,0.7 -0.89,0.2 -1.82,0.44 -2.1,0.75 -0.28,0.32 -0.38,0.52 -0.4,0.77 -0.03,0.24 -0.27,0.36 -0.31,0.04 -0.04,-0.32 -0.11,-2.05 -0.15,-2.65 -0.04,-0.64 -0.25,-2.04 -0.29,-2.25 -0.04,-0.19 0.16,-0.36 0.28,-0.08 0.12,0.28 0.2,0.42 0.56,0.56 0.68,0.27 1.58,0.28 8.26,-0.51 6.68,-0.77 7.19,-0.95 7.87,-1.13 0.71,-0.19 1.14,-0.45 1.23,-1.05 0.08,-0.34 0.38,-1.02 0.36,0.07 z"
   id="path10" />
		<path
   class="st0"
   d="m 234.38,152.99 c -0.13,0.6 -0.67,3.9 -0.67,4.56 0,0.67 -0.31,0.67 -0.39,0.22 -0.11,-0.64 -0.35,-0.72 -0.63,-0.89 -0.28,-0.17 -1.09,-0.46 -3.32,-0.81 -2.31,-0.37 -3.82,-0.63 -3.82,-0.63 0,0 -0.72,3.05 -1.12,4.9 -0.5,2.32 -1.06,5.38 -1.06,5.38 0,0 3.25,0.92 4.45,1.26 1.19,0.33 3.02,1.09 3.61,0.1 0.41,-0.69 0.67,-0.54 0.28,0.2 -0.14,0.26 -0.95,3.43 -1.08,4.06 -0.24,1.17 -0.4,0.43 -0.35,0.16 0.05,-0.25 0.28,-0.76 -0.76,-1.17 -1.03,-0.42 -4.52,-1.58 -7.59,-2.46 -3.07,-0.87 -6.58,-2 -7.97,-1.88 -0.69,0.06 -0.88,0.22 -1.05,0.45 -0.23,0.33 -0.65,0.43 -0.32,-0.11 0.31,-0.51 1.1,-3.34 1.23,-4.22 0.2,-1.37 0.42,-0.41 0.39,-0.15 -0.04,0.32 0.06,0.72 0.64,1.05 1.5,0.84 7.06,2.3 7.06,2.3 0,0 0.71,-2.81 1.18,-4.97 0.56,-2.55 0.94,-5.08 0.94,-5.08 0,0 -1.41,-0.23 -2.41,-0.4 -1,-0.17 -4.71,-0.71 -5.2,-0.56 -0.47,0.14 -0.73,0.5 -0.8,0.71 -0.07,0.23 -0.53,0.68 -0.28,-0.16 0.18,-0.6 0.54,-2.87 0.61,-4.18 0.06,-1.18 0.37,-0.66 0.38,-0.33 0.01,0.26 0.28,0.7 0.54,0.81 1.24,0.54 3.44,0.85 7.95,1.52 4.51,0.66 7.91,1.14 8.52,0.92 0.65,-0.22 0.61,-0.46 0.73,-0.74 0.13,-0.3 0.49,-0.71 0.31,0.14 z"
   id="path11" />
		<path
   class="st0"
   d="m 216.04,199.37 c -0.51,0.35 -2.49,2.76 -3.09,3.59 -0.48,0.65 -0.41,0.13 -0.29,-0.13 0.23,-0.47 0.09,-0.62 -0.09,-1.03 -0.3,-0.68 -2.62,-2.56 -5.6,-5.06 -2.94,-2.45 -5.62,-4.73 -6.42,-4.77 -0.4,-0.02 -0.75,-0.05 -1.57,0.7 -1.24,1.14 -2.71,2.96 -3.04,3.54 -0.48,0.84 -0.38,1.64 -0.38,1.91 0.01,0.45 -0.13,0.39 -0.29,0 -0.17,-0.44 -0.6,-2.19 -0.62,-2.5 -0.02,-0.24 0,-0.37 0.27,-0.66 0.46,-0.5 4.38,-4.94 4.95,-5.57 0.62,-0.7 1.57,-1.81 1.82,-2.24 0.37,-0.64 0.49,-0.18 0.38,0.14 -0.12,0.33 -0.38,0.7 -0.18,1.3 0.39,1.16 4.08,3.89 6.21,5.6 4.17,3.36 6.21,5.13 6.89,5.13 0.53,0.01 0.67,-0.09 0.92,-0.29 0.18,-0.15 0.66,-0.04 0.13,0.34 z"
   id="path12" />
		<path
   class="st0"
   d="m 192.07,199.17 c 0.2,0.51 2.19,3.93 4.28,7.42 2.15,3.6 4.48,7.36 4.8,7.92 0.63,1.1 0.65,1.37 -0.44,0.83 -1.58,-0.79 -7.94,-3.99 -8.96,-4.48 -1.08,-0.52 -6.25,-3.14 -6.25,-3.14 0,0 1.12,8.47 1.21,8.95 0.08,0.48 1.01,7.54 1.05,7.89 0.05,0.36 0.05,0.92 -0.59,0.31 -0.64,-0.6 -10.66,-13.39 -11.17,-13.97 -0.48,-0.55 -0.97,-0.8 -1.47,-0.86 -0.4,-0.05 -0.59,-0.03 -0.79,0.04 -0.25,0.09 -0.45,-0.14 -0.08,-0.28 0.45,-0.17 4.02,-2.02 4.38,-2.23 0.23,-0.13 0.52,0.05 0.19,0.25 -0.45,0.28 -0.51,0.47 -0.42,0.88 0.22,0.97 7.48,9.98 7.48,9.98 0,0 -1.24,-8.09 -1.44,-9.12 -0.2,-1.05 -0.92,-5.81 -0.92,-5.81 0,0 0,-0.3 0.31,-0.14 0.32,0.17 7.4,3.79 8.15,4.15 0.71,0.36 5.3,2.61 5.3,2.61 0,0 -3.99,-6.46 -5.63,-9.05 -0.41,-0.65 -0.85,-0.95 -1.08,-1 -0.56,-0.11 -0.74,0.12 -1.06,0.26 -0.16,0.07 -0.43,-0.13 0.07,-0.43 0.6,-0.35 1.26,-0.87 1.66,-1.19 0.4,-0.32 1.43,-1.3 1.59,-1.46 0.2,-0.2 0.42,0.04 0.24,0.21 -0.4,0.37 -0.72,0.71 -0.41,1.46 z"
   id="path13" />
		<path
   class="st0"
   d="m 148.28,223.79 c -0.04,0.34 0.06,4.26 0.11,4.75 0.02,0.23 -0.18,0.16 -0.31,-0.34 -0.04,-0.15 -0.31,-0.69 -0.83,-0.79 -1.52,-0.31 -4.39,-0.08 -4.39,-0.08 0,0 -0.09,4.54 0.39,5.06 0.45,0.49 0.52,0.43 0.72,0.48 0.2,0.04 0.69,0.29 0.37,0.27 -0.61,-0.06 -4.03,-0.06 -4.8,0.02 -0.56,0.06 -0.27,-0.2 0.2,-0.31 0.48,-0.11 0.71,-0.37 0.89,-0.96 0.21,-0.69 0.11,-4.58 0.11,-4.58 0,0 -4.17,-0.04 -4.69,0.25 -0.43,0.22 -0.52,0.62 -0.56,0.94 -0.04,0.32 -0.38,0.61 -0.34,0.17 0.08,-0.78 0.13,-3.6 0.04,-4.23 -0.08,-0.56 0.05,-0.48 0.24,-0.15 0.23,0.41 0.15,0.64 0.64,0.84 0.58,0.23 4.68,0.16 4.68,0.16 0,0 0.03,-3.85 -0.08,-4.44 -0.11,-0.57 -0.51,-0.93 -0.99,-0.98 -0.28,-0.03 -0.52,-0.27 -0.16,-0.24 1.21,0.13 3.63,0.08 4.58,-0.01 0.5,-0.05 0.2,0.22 -0.17,0.31 -0.41,0.11 -0.81,0.33 -0.97,0.94 -0.16,0.59 -0.13,4.38 -0.13,4.38 0,0 3.59,0.05 4.24,-0.09 0.55,-0.12 0.84,-0.45 0.96,-0.96 0.04,-0.35 0.29,-0.74 0.25,-0.41 z"
   id="path14" />
		<path
   class="st0"
   d="m 115.75,232.99 c -0.7,-0.43 -3.93,-1.65 -5.2,-1.86 -0.57,-0.09 -0.04,-0.24 0.32,-0.22 0.47,0.04 0.87,0.11 1.21,-0.26 0.89,-0.96 4.41,-9.83 4.87,-11.92 0.48,-2.17 0.55,-4.97 -3.38,-6.37 -4.09,-1.46 -5.72,0.77 -7.94,4.95 -1.62,3.05 -4.2,8.48 -4.2,9.09 0,0.47 0.15,0.64 0.41,0.85 0.36,0.3 0.57,0.78 0.22,0.5 -0.9,-0.72 -3.92,-2 -4.51,-2.18 -0.35,-0.11 -0.07,-0.31 0.37,-0.22 0.37,0.08 0.53,-0.01 0.89,-0.26 0.88,-0.61 5.34,-9.55 5.93,-10.52 1.09,-1.8 2.79,-3.48 5.15,-3.91 2.56,-0.45 6.61,0.87 8.69,3.79 1.72,2.43 1.13,5.02 0.81,6.4 -0.39,1.69 -4.07,9.91 -4.08,11.01 0,0.45 0.19,0.57 0.43,0.77 0.24,0.23 0.37,0.58 0.01,0.36 z"
   id="path15" />
		<path
   class="st0"
   d="m 89.99,222.03 c 0,0 -0.77,-8.32 -1,-11.19 -0.27,-3.35 -1.11,-9.82 -1.11,-9.82 0,0 -6.54,7.07 -7.38,7.92 -0.85,0.86 -1.63,1.7 -1.63,2.29 0,0.59 0.27,0.71 0.37,0.91 0.08,0.17 0.23,0.73 0.06,0.53 -0.33,-0.4 -1.05,-1.14 -1.79,-1.82 -0.64,-0.58 -1.29,-1.11 -1.73,-1.4 -0.44,-0.3 0.11,-0.25 0.35,-0.09 0.24,0.17 0.41,0.25 0.9,0.2 0.62,-0.08 5.32,-5.24 7.06,-7.06 1.75,-1.82 5.67,-6.14 6.07,-6.69 0.29,-0.4 0.29,-0.22 0.32,0.21 0.04,0.53 0.72,9.08 0.87,10.07 0.14,0.92 0.58,6.74 0.63,7.39 0.06,0.65 0.25,2.83 0.25,2.83 0,0 3,-4.32 4,-5.87 1,-1.55 3.09,-4.33 3.08,-5.07 -0.01,-0.78 -0.42,-1.02 -0.67,-1.26 -0.14,-0.14 -0.24,-0.49 0.07,-0.22 0.69,0.62 2.83,2.16 4.14,2.76 0.63,0.29 -0.31,0.12 -0.48,0.04 -0.1,-0.04 -0.7,-0.17 -1.21,0.01 -0.67,0.24 -4.45,6.02 -5.2,7.13 -0.78,1.14 -3.05,4.32 -3.57,5.18 -0.53,0.86 -1.75,2.65 -1.99,3.1 -0.23,0.43 -0.35,0.39 -0.41,-0.08 z"
   id="path16" />
		<path
   class="st0"
   d="m 81.57,187.21 c 0.22,0.42 0.83,1.34 1.52,2.22 0.69,0.86 1.43,1.62 1.88,2.04 0.35,0.34 -0.14,0.21 -0.47,-0.03 -0.39,-0.29 -0.71,-0.36 -1.74,0.21 -1.21,0.65 -11.94,9.68 -12.35,10.2 -0.5,0.62 -0.46,0.92 -0.25,1.39 0.16,0.36 0.05,0.68 -0.09,0.45 -0.42,-0.67 -2.45,-3.48 -3.18,-4.02 -0.47,-0.35 0.02,-0.26 0.33,-0.09 0.33,0.19 0.42,0.17 0.78,0.02 1.2,-0.51 13.32,-10.3 13.51,-10.99 0.2,-0.73 -0.07,-0.84 -0.1,-1.05 -0.03,-0.29 -0.07,-0.78 0.16,-0.35 z"
   id="path17" />
		<path
   class="st0"
   d="m 72.28,114.3 c -0.46,0.72 -1.85,4.23 -2.08,5.24 -0.11,0.47 -0.33,-0.03 -0.27,-0.37 0.12,-0.59 0.21,-0.9 -0.78,-1.56 -1.27,-0.84 -13.94,-5.68 -15.21,-5.68 -0.65,0 -0.8,0.27 -1.04,0.56 -0.21,0.26 -0.64,0.38 -0.37,-0.01 0.31,-0.44 1.99,-4.62 2.08,-5.21 0.09,-0.57 0.31,0.01 0.25,0.33 -0.09,0.48 -0.06,0.83 0.24,1.08 1.21,1.03 14.9,6.29 15.91,6.12 0.69,-0.11 0.62,-0.35 0.86,-0.57 0.27,-0.23 0.74,-0.43 0.41,0.07 z"
   id="path18" />
		<path
   class="st0"
   d="m 67.52,184.27 4.06,-5.42 c 0,0 -7.11,0.38 -8.63,0.51 -1.52,0.13 -5.95,0.32 -6.45,1.04 -0.33,0.48 -0.02,1.01 0.01,1.17 0.06,0.33 -0.02,0.84 -0.16,0.45 -0.09,-0.25 -0.64,-1.69 -1.08,-2.69 -0.39,-0.9 -0.91,-1.99 -1.05,-2.2 -0.22,-0.33 0.15,-0.25 0.37,-0.01 0.23,0.25 0.36,0.41 0.96,0.57 1,0.26 7.61,-0.08 8.9,-0.12 1.28,-0.05 10.68,-0.67 11.47,-0.59 0.42,0.04 0.79,-0.16 0.29,0.62 -0.28,0.44 -5.9,7.79 -6.33,8.38 -0.44,0.61 -5.66,7.36 -5.76,8.2 -0.08,0.72 0.02,0.9 0.06,1.09 0.06,0.29 0.02,1.07 -0.09,0.81 -0.48,-1.16 -2.52,-4.26 -3.16,-5.1 -0.4,-0.52 0.13,-0.17 0.45,-0.05 0.33,0.11 0.52,0.04 0.87,-0.2 1.02,-0.67 4.71,-5.69 5.27,-6.46 z"
   id="path19" />
		<path
   class="st0"
   d="m 68.11,157.54 c 0.27,0.77 1.1,4.14 1.51,5.61 0.15,0.52 1.08,3.95 1.36,4.53 0.13,0.28 -0.48,-0.16 -0.6,-0.46 -0.08,-0.19 -0.05,-0.32 -0.36,-0.55 -0.17,-0.13 -0.41,-0.16 -0.63,-0.18 -0.85,-0.11 -5.77,1.52 -8.22,2.27 -2.52,0.77 -7.33,2.22 -7.83,2.8 -0.5,0.59 -0.34,0.85 -0.3,1.15 0.04,0.26 -0.16,1.21 -0.27,0.62 -0.1,-0.56 -0.21,-1.56 -0.66,-3.15 -0.4,-1.41 -2.02,-7.23 -2.12,-7.49 -0.13,-0.32 -0.15,-0.44 0.09,-0.54 0.23,-0.08 1.76,-0.61 2.17,-0.85 0.51,-0.31 0.31,0.14 0.03,0.43 -0.27,0.29 -0.42,0.44 -0.37,1.35 0.07,1.07 1.36,5.07 1.36,5.07 0,0 2.4,-0.64 3.19,-0.91 0.77,-0.28 3.4,-1.05 3.4,-1.05 0,0 -1.14,-4.32 -1.54,-4.84 -0.38,-0.5 -0.63,-0.4 -1.02,-0.37 -0.29,0.02 -0.77,-0.19 -0.41,-0.26 0.81,-0.16 3.03,-0.76 4.11,-1.28 0.46,-0.22 0,0.35 -0.21,0.47 -0.22,0.13 -0.55,0.33 -0.58,1.06 -0.02,0.61 0.4,2.07 0.59,2.58 0.17,0.49 0.66,2.17 0.66,2.17 0,0 4.35,-1.25 5.07,-1.6 0.69,-0.34 1.29,-0.35 1.13,-1.79 -0.14,-1.21 -0.92,-4.03 -1.54,-4.94 -0.47,-0.69 -0.86,-0.95 -1.02,-1.07 -0.16,-0.13 -0.73,-0.61 -0.39,-0.5 0.51,0.16 2.68,0.92 2.94,1.12 0.23,0.18 0.34,0.26 0.46,0.6 z"
   id="path20" />
		<path
   class="st0"
   d="m 89.45,89.13 c -0.52,0.55 -4.34,4.68 -5.4,5.89 -0.36,0.41 -1.21,1.38 -1.46,1.68 -0.2,0.23 -0.28,-0.22 -0.12,-0.5 0.16,-0.28 0.33,-0.4 0.12,-1.06 -0.27,-0.88 -4.72,-4.51 -6.65,-6.19 -2.08,-1.8 -5.43,-4.86 -6.2,-4.97 -0.69,-0.09 -0.86,0.03 -1.19,0.2 -0.24,0.12 -0.84,0.37 -0.42,-0.04 0.41,-0.4 1.04,-1.1 1.96,-2.09 1,-1.07 5.07,-5.31 5.24,-5.53 0.21,-0.28 0.32,-0.28 0.5,-0.1 0.21,0.22 1.23,1.28 1.63,1.53 0.61,0.37 0.06,0.33 -0.26,0.25 -0.28,-0.06 -0.44,-0.17 -1.11,0.22 -1.06,0.62 -3.55,3.6 -3.55,3.6 l 4.87,4.5 c 0,0 3.39,-3.16 3.45,-3.81 0.05,-0.56 -0.03,-0.7 -0.07,-0.83 -0.09,-0.26 -0.05,-0.71 0.16,-0.4 0.63,0.89 2.25,2.33 2.67,2.63 0.43,0.3 -0.07,0.31 -0.3,0.2 -0.36,-0.16 -0.49,-0.41 -1.16,-0.09 -0.66,0.33 -3.38,3.52 -3.38,3.52 0,0 3.47,2.98 4.12,3.46 0.85,0.62 1.46,0.77 2.31,-0.01 0.9,-0.82 2.84,-2.71 3.29,-3.72 0.35,-0.77 0.21,-1.31 0.23,-1.5 0.02,-0.3 0.2,-0.68 0.26,-0.43 0.06,0.25 0.77,2.47 0.81,2.81 0.04,0.3 -0.03,0.45 -0.35,0.78 z"
   id="path21" />
		<path
   class="st0"
   d="m 66.76,148.23 c 0.03,0.41 0.14,2.36 0.27,3.23 0.07,0.49 -0.23,-0.12 -0.3,-0.37 -0.07,-0.24 -0.11,-0.5 -0.52,-0.7 -0.68,-0.36 -5.41,0.04 -8.17,0.34 -2.52,0.28 -8.35,0.57 -9.04,1.21 -0.5,0.46 -0.41,1.01 -0.43,1.21 -0.01,0.27 -0.47,1.14 -0.46,0.48 0.01,-0.4 -0.01,-2.15 -0.1,-2.76 -0.1,-0.66 -0.56,-4.87 -0.31,-6.32 0.29,-1.66 1.93,-3.97 4.75,-4.09 2.97,-0.13 4.41,2.36 4.71,2.96 0.27,-0.35 0.43,-0.54 1.22,-1.14 0.96,-0.73 7.27,-4.45 7.75,-5.58 0.31,-0.73 0.16,-1.09 0.15,-1.25 -0.06,-0.74 0.1,-1.26 0.46,0 0.21,0.75 0.36,2.86 -0.54,4.12 -1.12,1.57 -4.69,3.69 -5.39,4.17 -0.83,0.56 -2.73,1.61 -2.73,2.76 0.01,1.01 0.15,1.62 0.15,1.62 0,0 2.8,-0.28 3.56,-0.37 0.76,-0.09 3.72,-0.27 4.12,-0.71 0.4,-0.45 0.31,-0.6 0.35,-0.83 0.03,-0.21 0.48,-1.15 0.45,0.07 0,0.44 0.01,1.54 0.05,1.95 z m -11.42,-4.58 c -2.63,-1.54 -5.11,-0.18 -5.96,1.19 -0.82,1.37 -0.38,3.94 -0.38,3.94 0,0 3.38,-0.23 4.03,-0.27 0.64,-0.04 4.14,-0.29 4.14,-0.29 0,0 0.37,-3.28 -1.83,-4.57 z"
   id="path22" />
		<path
   class="st0"
   d="m 136.64,86.36 c -3.27,-3.89 -3.79,-8.15 -3.79,-10.39 0,-2.89 1.31,-4.72 2.58,-6.5 l 0.94,-1.16 c 1.57,-1.84 3.71,-4.35 3.71,-8.74 0,-3.82 -0.44,-5.46 -0.68,-6.09 -0.14,1.89 -1.23,9.71 -9.36,16.76 -2.33,2.02 -6.22,5.4 -6.22,9.61 0,6.18 4,11.29 5.24,12.73 -1.07,-2.72 -1.41,-5.38 -1.41,-7.55 0,-3.05 0.62,-5.17 0.63,-5.21 l 0.07,-0.24 0.12,0.21 c 2.82,4.77 7.02,6.25 8.17,6.57 z"
   id="path23" />
		<path
   class="st0"
   d="m 137.85,68.27 c 2.02,-0.78 9.37,-3.99 9.37,-9.14 0,-4.02 -2.95,-7.62 -3.95,-8.73 0.28,0.9 0.82,2.97 0.82,5.47 -0.01,6 -4.8,11.04 -6.24,12.4 z"
   id="path24" />
		<path
   class="st0"
   d="m 165.37,58.41 c -1.97,2.87 -9.21,5.72 -9.54,5.85 l -0.12,-0.18 c 4.11,-4.18 5.23,-10.66 5.47,-12.42 -5.79,9.13 -9.34,10.7 -13.42,12.5 l -1.79,0.8 c -4.9,2.32 -10.52,5.64 -10.52,10.83 0,6.87 2.34,9.74 3.13,10.52 -0.51,-1.83 -0.68,-3.39 -0.68,-4.61 0,-1.99 0.41,-3.1 0.42,-3.12 l 0.15,-0.4 0.06,0.42 c 0.54,3.78 5.1,7.33 6.1,8.07 -0.05,-0.41 -0.13,-1.3 -0.13,-2.48 0,-3.83 0.89,-10.62 6.84,-13.17 10.73,-4.58 13.4,-10.51 14.03,-12.61 z"
   id="path25" />
		<path
   class="st0"
   d="m 156.47,79.67 c 0,-7.08 1.36,-9.8 2.08,-10.75 -11.55,5.24 -12.79,14.78 -12.79,18.56 0,0.46 0.02,0.81 0.04,1.08 0.5,-1.46 2.25,-5.73 6.48,-9.32 l 0.07,-0.06 0.07,0.04 c 0.02,0.01 0.04,0.03 0.04,0.14 0,0.38 -0.26,1.91 -1.79,8.45 1.07,-0.68 5.8,-3.99 5.8,-8.14 z"
   id="path26" />
		<path
   class="st0"
   d="m 166.61,78.98 c 0,-2.08 -0.57,-3.75 -0.83,-4.41 -0.19,0.74 -0.82,2.57 -2.77,4.39 v 0 0 c 0,0 0,0 0,0 l -0.16,-0.16 c 0.02,-0.02 1.2,-1.38 1.2,-4.97 0,-1.04 -0.1,-2.25 -0.35,-3.67 -0.09,-0.54 -0.14,-1.07 -0.14,-1.58 0,-2.84 1.27,-5.18 1.87,-6.14 -1.23,0.9 -4.61,3.77 -6.01,9.06 -1.05,3.92 -1.31,5.57 -1.51,6.77 -0.13,0.83 -0.23,1.42 -0.52,2.4 -0.67,2.28 -2.13,6.37 -3.32,8.31 0.85,-0.5 3.14,-2.08 4.88,-5.57 l 0.15,-0.3 0.06,0.34 c 0,0.02 0.13,0.85 0.13,2.1 0,1.56 -0.23,3.76 -1.13,5.78 1.54,-1.23 8.45,-7.04 8.45,-12.35 z"
   id="path27" />
		<path
   class="st0"
   d="m 178.87,67.48 c -3.88,-2.88 -8.11,-1.55 -8.15,-1.53 l -0.35,0.11 0.23,-0.29 c 1.97,-2.48 4.49,-4 5.3,-4.46 -1.23,-0.18 -6.08,-0.62 -8.48,2.83 -1.55,2.23 -1.81,5.6 -1.81,7.58 0,0.55 0.02,0.97 0.04,1.25 2.37,-4.12 2.64,-4.11 2.73,-4.1 l 0.1,0.04 0.02,0.09 c 0.09,0.44 0.13,0.99 0.13,1.58 0,1.87 -0.35,4.22 -0.53,5.36 4.19,-8.03 9.36,-8.5 10.77,-8.46 z"
   id="path28" />
		<path
   class="st0"
   d="m 144.26,210.52 0.44,-19.42 c 0.38,0.56 0.68,1.04 0.81,1.31 0.47,0.99 0.8,2.3 0.8,2.3 0,0 0.65,0.65 0.8,1.6 0.15,0.95 0.6,4.15 0.75,4.9 0.15,0.75 0.15,1.35 0.6,1.35 2.6,0 4.05,-4.3 3.5,-5.65 -0.55,-1.35 -2,-3 -2,-3 0,0 -1.4,-4.45 -1.65,-5 -0.25,-0.55 -1.25,-1.05 -1.55,-1.25 -0.15,-0.1 -1.06,-1 -1.94,-1.88 l 0.12,-5.44 c -0.34,0.04 -0.62,0 -0.86,0 -3.95,0 -6.13,-2.45 -6.22,-2.54 l 0.96,32.7 z m 6.54,-10.61 c -1.15,1.6 -1.3,1.65 -1.7,1.65 -0.4,0 -0.4,-1.75 -0.15,-2.65 0.25,-0.9 0.9,-1.85 1.75,-1.8 0.7,0.04 1.25,1.2 0.1,2.8 z"
   id="path29" />
		<path
   class="st0"
   d="m 187.37,136.66 c 0.85,0.25 4.6,1.3 6.49,1.2 4.94,-0.26 8.64,-4.05 9.74,-4.95 1.1,-0.9 4.2,-2.5 4.2,-2.5 0,0 -2.7,-0.05 -6.09,-0.35 -3.4,-0.3 -6.8,0.25 -9.34,1.1 -2.55,0.85 -4.05,2.5 -4.55,2.9 -0.5,0.4 -0.9,1 -1.9,1.25 -1,0.25 -1.85,0.45 -1.85,0.45 0.5,-1.35 0.95,-2 1.35,-2.3 0.4,-0.3 2.6,-1.75 4.85,-4.15 2.25,-2.4 5.64,-8.24 5.89,-9.19 0.25,-0.95 2.3,-5.54 2.3,-5.54 0,0 -2.5,1.8 -5.24,3.25 -2.75,1.45 -5.8,4.1 -7.14,6.44 -1.35,2.35 -1.85,5.2 -1.9,7.5 -0.05,2.3 -0.95,4.25 -2.9,6.59 -1.5,1.8 -4.6,4.35 -5.2,4.85 -0.16,0.14 -1.54,1.15 -3.05,1.55 -0.95,0.25 -2.1,0.1 -2.1,0.1 0,0 1.05,-1.35 1.7,-1.55 0.65,-0.2 2.2,-0.7 4.7,-2.95 2.5,-2.25 4,-7.94 4.2,-8.89 0.2,-0.95 1.1,-3.85 1.1,-3.85 0,0 -1.95,1.9 -4.25,3.35 -2.3,1.45 -5,4.1 -6.65,6.84 -1.65,2.75 -0.85,4.95 -0.85,5.35 0,0.4 -0.15,0.65 -0.8,1.3 -0.65,0.65 -1.65,0.8 -2.2,0.95 -0.55,0.15 -2.85,1.05 -5.2,1.05 -2.35,0 -5.45,-1.1 -6.14,-1.15 -0.7,-0.05 -1.8,0.6 -2.25,0.65 -0.45,0.05 -0.8,-0.15 -1.25,-0.15 -0.45,0 -1.85,0.05 -1.85,0.05 0.35,-0.7 0.4,-1.95 0.45,-2.3 0.05,-0.35 0.15,-0.85 0.65,-0.95 0.5,-0.1 1.95,-1.05 2.45,-1.3 0.5,-0.25 0.9,-0.3 1.45,-0.3 0.4,0 3.2,-0.1 5.5,-1.5 4.09,-2.49 6.35,-6.35 6.99,-7.3 0.65,-0.95 3.9,-3.35 3.9,-3.35 0,0 -2.55,0.7 -5.45,1.55 -2.9,0.85 -7.14,2.85 -8.64,4.2 -1.5,1.35 -2.3,2.65 -2.85,3.55 -0.55,0.9 -1.05,2.15 -1.5,2.5 -0.45,0.35 -1.9,1.1 -1.9,0.9 0,-0.2 0.55,-1.25 0.9,-1.85 0.35,-0.6 1.45,-2.35 2.15,-3.4 0.7,-1.05 1.1,-2.15 1.3,-2.7 0.2,-0.55 0.7,-1.9 1.3,-2.6 2.19,-2.55 3.7,-2.55 4.9,-2.65 1.2,-0.1 2.4,0.15 6.19,-0.3 3.8,-0.45 6.69,-2.55 7.49,-3 0.8,-0.45 4.35,-3.05 4.35,-3.05 0,0 -3.45,0.6 -4.54,0.75 -1.1,0.15 -5.35,0.2 -7.79,0.8 -2.45,0.6 -4.6,2.1 -6.65,3.45 -2.05,1.35 -4.25,3.25 -4.25,3.25 0,0 0,-1.3 0.15,-1.9 0.15,-0.6 0.35,-1.45 1.35,-2 1,-0.55 3.85,-2.25 5.69,-4.1 1.85,-1.85 4.2,-5.75 4.5,-6.64 0.3,-0.9 2.1,-4.5 2.1,-4.5 0,0 -0.85,0.9 -4,2.5 -3.15,1.6 -6,3.8 -7.69,6 -1.7,2.2 -1.95,4.15 -2,4.99 -0.05,0.85 -0.2,1.95 -0.4,2.4 -0.2,0.45 -0.43,0.71 -0.6,2.55 -0.15,1.65 -0.35,2 -0.65,2.85 -0.3,0.85 -0.3,1.2 -0.65,1.8 -0.35,0.6 -0.3,0.3 -0.65,1.15 -0.35,0.85 -2.35,3.35 -2.35,3.35 0,0 -0.65,-0.8 0.35,-2.95 1.45,-3.12 2,-5.65 2.05,-7.29 0.05,-1.65 -0.7,-4.9 -1.15,-6.1 -0.45,-1.2 -1.95,-5.44 -1.95,-5.44 0,0 -0.15,1.95 -0.85,3.95 -0.7,2 -2.3,6.04 -2.3,8.84 0,2.8 1.45,6.05 2.15,6.94 0.7,0.9 0.85,1.65 0.75,2.75 -0.1,1.1 -0.49,1.5 -1.05,2.4 -0.35,0.55 -0.34,0.81 -0.7,2.35 -0.7,3 -2.2,3.9 -3.5,4.94 -0.15,0.12 -0.35,0.26 -0.57,0.41 l 0.7,-27.41 c 0.31,-4.14 0.72,-12.49 4.51,-17.98 0.48,-0.69 0.73,-1.03 0.73,-1.03 2.47,-3.44 6.19,-5.07 9.4,-5.39 v -2.24 c 0,0 -17.22,-0.03 -20.57,-0.03 h -0.06 c -3.33,0 -18.84,0.03 -18.84,0.03 v 2.24 c 3.2,0.32 6.93,1.95 9.4,5.39 2.94,4.1 4.76,6.51 5.29,19.49 l 0.96,31.33 c -2.22,1.24 -2.59,3.93 -2.59,3.93 -0.4,-0.7 -0.55,-1.55 -0.25,-2.05 0.3,-0.5 1.35,-3.3 0.85,-5.99 -0.5,-2.7 -3.5,-7.19 -4.45,-8.29 -0.95,-1.1 -2.7,-3.8 -2.7,-3.8 0,0 0.05,2.5 -0.1,4.5 -0.15,2 -0.85,4.8 0.35,8.29 1.2,3.5 3.75,5.2 4.2,5.55 0.45,0.35 0.95,0.95 1.15,2 0.2,1.05 0.05,1.3 -0.1,2.05 -0.15,0.75 0.05,1.15 -0.25,2.2 -0.21,0.73 -0.8,1.15 -0.9,1.8 -0.23,1.48 -0.6,2.5 -0.75,3.05 -0.15,0.55 -0.5,0.65 -0.95,1.4 -0.45,0.75 -0.35,1.25 -0.35,1.25 0,0 -2.3,-1.95 -2.6,-2.65 -1.9,-4.42 -4.95,-5.4 -6.9,-5.85 -1.95,-0.45 -5,-0.3 -6.49,-0.15 -1.45,0.14 -5.19,-0.6 -5.42,-0.65 0.21,0.04 1.87,0.45 3.97,2.74 2.25,2.45 4.9,4.2 6.95,5 2.05,0.8 4.5,0.15 5.25,-0.05 0.75,-0.2 1.3,-0.5 1.95,-0.25 0.65,0.25 1.4,1.25 1.4,1.25 0,0 -1.15,0.65 -2,1.05 -3.03,1.42 -5.36,2.58 -7.14,5.54 -0.76,1.27 -1.8,5.75 -1.95,6.79 -0.15,1.05 -1.05,3.85 -1.05,3.85 0,0 1.7,-1.45 3.1,-2.4 1.4,-0.95 3.45,-2.1 5.7,-4.95 2.25,-2.85 2.55,-7.24 2.65,-8.14 0.1,-0.9 0.75,-1.15 1,-1.15 0.25,0 1.1,0.6 1.05,1.35 -0.05,0.75 0.35,1.55 0.65,2 0.3,0.45 1,1.05 1.6,1.9 0.6,0.85 1.05,2.75 1.45,3.55 0.4,0.8 0.6,0.7 1.2,1.8 0.6,1.1 0.5,1.7 1,2.55 0.5,0.85 0.75,0.75 0.75,0.75 l -0.3,-5.3 c 0,0 -0.2,-0.1 -0.4,-0.35 -0.2,-0.25 -0.5,-0.9 -0.5,-0.9 0,0 0.9,-0.6 1.5,-0.9 0.6,-0.3 0.95,-0.15 1.35,0.1 0.4,0.25 3.25,2.55 6.35,2.55 3.1,0 9.44,-3.4 10.59,-4 1.15,-0.6 4.15,-1.45 4.15,-1.45 0,0 -3,-0.3 -4.6,-0.65 -1.6,-0.35 -6.24,-1.25 -7.34,-1.25 -1.1,0 -2.05,0.25 -2.05,0.25 l 0.13,-1.61 c 0,0 -1.32,1.12 -1.77,1.47 -0.45,0.35 -1.59,0.98 -3.3,1.64 -1.23,0.47 -2.4,0.7 -2.4,0.7 0,0 -0.2,-0.2 -0.35,0.55 -0.15,0.75 -0.25,0.65 -1.1,0.85 -0.85,0.2 -1.6,0.55 -1.6,0.55 0,0 0.7,-1.8 0.8,-2.1 0.1,-0.3 0.25,-0.6 1.3,-0.8 1.05,-0.2 4.1,-0.9 7.14,-3.65 3.05,-2.75 4.61,-6.26 5.15,-7.44 0.87,-1.92 3.55,-4.4 3.55,-4.4 0,0 -2.3,0.9 -6.64,2.4 -0.21,0.07 -0.4,0.15 -0.61,0.22 l 0.16,-5.74 h -0.01 l 0.01,-0.41 c -0.12,0.05 -0.22,0.1 -0.3,0.14 -0.65,0.3 -2.55,0.85 -3.3,1.2 -0.75,0.35 -1.35,1.15 -1.95,1.45 -0.36,0.18 -1.66,0.59 -2.82,1.74 l 0.05,0.94 v 0 l 0.19,6.11 c -1.66,2.18 -1.77,3.91 -1.96,5.05 -0.2,1.15 -0.35,1.7 -0.5,2.3 -0.15,0.6 -0.75,2 -0.75,2 0,0 -0.85,-1.65 -1.7,-2.55 -0.85,-0.9 -0.55,-1.65 -0.45,-2.35 0.1,-0.7 0.5,-1.45 0.95,-2.6 0.45,-1.15 1.05,-3.35 1.4,-4.05 0.35,-0.7 0.2,0.65 0.95,-3.45 0.75,-4.1 4.05,-5.04 4.65,-5.34 0.6,-0.3 1.2,-1.1 1.95,-1.45 0.75,-0.35 2.65,-0.9 3.3,-1.2 0.65,-0.3 2.77,-1.19 3.75,-2.5 0.98,-1.31 1.55,-1.7 2.2,-2.05 0.65,-0.35 1.7,-0.4 3.35,-0.5 1.65,-0.1 2,1.2 2.35,1.65 0.35,0.45 0.35,0.9 0.4,1.5 0.05,0.6 -0.4,3.7 2.95,6.6 3.35,2.9 7.44,3.15 8.94,3.55 1.5,0.4 5.25,1.95 5.25,1.95 0,0 -0.65,-0.25 -3.2,-4.2 -2.55,-3.95 -5,-6.3 -6.53,-7.18 -1.54,-0.89 -4.36,-1.51 -5.01,-1.66 -0.65,-0.15 -1.25,-0.35 -1.65,-0.7 -0.4,-0.35 -1.25,-1.6 -1.25,-1.6 0,0 0.35,-0.05 0.65,0 0.3,0.05 1.65,0.95 5,0.95 3.35,0 5.15,-1.15 5.79,-1.4 0.65,-0.25 1.3,-0.2 1.95,0.2 0.65,0.4 1.45,0.95 3.05,1.95 1.6,1 4.5,2.55 7.44,2.55 2.95,0 8.04,-1.4 9.39,-2.05 1.35,-0.65 3.9,-1.2 3.9,-1.2 0,0 -2.5,-0.45 -3.9,-0.75 -1.4,-0.3 -5.95,-2 -9.14,-2 -3.2,0 -5.49,1.5 -5.79,1.7 -0.3,0.2 -0.7,0.8 -2.05,0.4 -1.35,-0.4 -1.55,-1.35 -1.55,-1.35 3.8,-0.55 4.15,-1.15 5.65,-2.1 1.5,-0.95 2.75,-2.75 3.7,-3.65 0.64,-0.61 1.17,-1.38 2.55,-2.65 1.84,-1.75 3.84,-0.75 3.84,-0.75 z m 7.28,-5.19 c 3.76,-0.89 10.64,-0.57 9.81,-0.37 -0.84,0.21 -5.79,2.35 -9.29,3.29 -3.5,0.94 -7.56,1.2 -7.56,1.2 l -0.05,-0.1 c -0.01,0 3.33,-3.13 7.09,-4.02 z m -7.51,-7.15 c 2.5,-4.23 8.4,-6.58 8.4,-6.58 0,0 -4.28,5.69 -5.64,7.51 -1.36,1.83 -4.85,6.99 -4.85,6.99 0,0 -0.42,-3.69 2.09,-7.92 z m -13.99,12.79 c 2.45,-4.02 7.25,-6.42 7.25,-6.42 0,0 -2.97,5.01 -4.65,7.3 -1.67,2.3 -4.07,5.11 -4.07,5.11 0,0 -0.98,-1.98 1.47,-5.99 z m -13.09,-2.51 c 2.2,-1.5 8.87,-3.97 8.87,-3.97 0,0 -5.11,4.54 -7.67,6.37 -2.56,1.83 -5.64,3.29 -5.64,3.29 0,0 0.99,-3.34 4.44,-5.69 z m 8.29,-10.17 c 2.19,-0.73 8.97,-0.99 8.97,-0.99 0,0 -5.9,2.09 -8.29,2.87 -2.4,0.78 -6.63,1.41 -6.63,1.41 0,0 2.71,-2.21 5.95,-3.29 z m -7.88,-4.39 c 1.88,-2.92 8.71,-6.47 8.71,-6.47 0,0 -3.81,3.81 -6.47,6.94 -2.66,3.13 -4.44,5.27 -4.44,5.27 l -0.05,0.1 c 0.01,0.01 0.38,-2.91 2.25,-5.84 z m -9.07,16.07 c 0,0 -1.88,-2.56 -1.93,-6.73 -0.05,-4.17 2.4,-8.66 2.4,-8.66 0,0 -0.1,4.91 0.05,7.67 0.15,2.77 -0.52,7.72 -0.52,7.72 z m -32.25,28.91 c -2.4,-0.83 -5.9,-3.18 -5.9,-3.18 0,0 6.37,-0.73 8.71,0.42 4.06,1.99 4.64,5.01 4.64,5.01 0,0 -5.05,-1.41 -7.45,-2.25 z m -1.04,18.78 c 0,0 0.81,-6.35 2.59,-8.56 2.59,-3.22 5.38,-3.73 5.38,-3.73 z m 28.29,-11.2 c 2.28,-0.23 8.57,1.18 8.57,1.18 0,0 -6.6,1.57 -9.98,1.81 -3.38,0.23 -6.33,-0.08 -6.33,-0.08 0,0 1.57,-2.28 7.74,-2.91 z m -6.49,-8.31 c 2.35,-2.29 9.55,-4.54 9.55,-4.54 0,0 -5.74,4.91 -8.04,6.94 -2.3,2.03 -5.22,5.53 -5.22,5.53 0,0 -0.46,-3.86 3.71,-7.93 z m -6.36,-8.56 c 0,0 -1.77,-3.03 -2.66,-6.26 -0.69,-2.53 -1.72,-8.66 -1.72,-8.66 0,0 4.04,5.83 4.75,7.77 1.19,3.29 -0.37,7.15 -0.37,7.15 z m 24.78,-6.26 c 0,0 4.28,0.99 6.21,2.3 4.1,2.77 6.63,8.09 6.63,8.09 0,0 -4.17,-2.24 -7.2,-4.54 -3.03,-2.29 -5.64,-5.69 -5.64,-5.69 z m 22.23,-3.49 c 3.76,0 9.24,1.88 9.24,1.88 0,0 -6.99,0.89 -9.24,0.89 -2.24,0 -6,-0.57 -6,-0.57 0,0 3.08,-2.2 6,-2.2 z"
   id="path30" />
		<path
   class="st0"
   d="m 169.77,118.23 c 0,0 -1.36,0.56 -1.36,2.6 0,2.04 1.81,1.47 1.81,1.47 0,0 1.58,-0.34 1.58,-2.37 0.01,-2.04 -2.03,-1.7 -2.03,-1.7 z"
   id="path31" />
		<path
   class="st0"
   d="m 194.51,125.73 c 0,0 -1.36,0.56 -1.36,2.6 0,2.04 1.81,1.47 1.81,1.47 0,0 1.59,-0.34 1.59,-2.37 0,-2.05 -2.04,-1.7 -2.04,-1.7 z"
   id="path32" />
		<path
   class="st0"
   d="m 152.62,149.23 c 0,0 -1.36,0.57 -1.36,2.61 0,2.03 1.81,1.46 1.81,1.46 0,0 1.59,-0.34 1.59,-2.37 0,-2.03 -2.04,-1.7 -2.04,-1.7 z"
   id="path33" />
		<path
   class="st0"
   d="m 181.91,141.37 c -0.62,1.94 1.28,1.95 1.28,1.95 0,0 1.61,0.16 2.23,-1.78 0.63,-1.94 -1.42,-2.24 -1.42,-2.24 0,0 -1.47,0.13 -2.09,2.07 z"
   id="path34" />
		<path
   class="st0"
   d="m 169.31,149.21 c 0,0 -1.36,0.57 -1.36,2.61 0,2.04 1.81,1.47 1.81,1.47 0,0 1.59,-0.34 1.59,-2.38 0,-2.03 -2.04,-1.7 -2.04,-1.7 z"
   id="path35" />
		<path
   class="st0"
   d="m 149.41,166.3 c 0,0 -1.36,0.56 -1.36,2.6 0,2.04 1.81,1.48 1.81,1.48 0,0 1.58,-0.34 1.58,-2.38 0,-2.04 -2.03,-1.7 -2.03,-1.7 z"
   id="path36" />
		<path
   class="st0"
   d="m 118.33,173.54 c 0,0 1.58,-0.34 1.58,-2.38 0,-2.04 -2.04,-1.7 -2.04,-1.7 0,0 -1.36,0.57 -1.36,2.6 0.01,2.05 1.82,1.48 1.82,1.48 z"
   id="path37" />
		<path
   class="st0"
   d="m 127.73,49.67 c 0.6,0.82 2.78,4.1 2.78,8.06 0,1.1 -0.13,2.85 -0.13,2.85 0,0 -0.1,1.71 -0.95,5.04 1.2,-1.8 2.91,-4.66 3.5,-7.04 l 0.07,-0.27 0.13,0.25 c 0.04,0.08 0.91,1.7 1.05,3.41 0.34,-0.77 1.04,-2.63 1.04,-4.68 0.01,-3.38 -3.43,-7.47 -7.49,-7.62 z"
   id="path38" />
		<path
   class="st0"
   d="m 128.63,62.08 v 0 c -0.06,-1.06 -0.19,-2.32 -0.45,-3.76 -0.35,1.09 -1.75,3.75 -7.32,9 -3.18,2.99 -4.9,5.26 -4.9,8.64 0,6.57 5.87,11.79 7.31,12.97 -0.48,-1.26 -1.97,-5.59 -1.97,-10.67 0,-2.25 1.31,-3.56 2.59,-4.84 l 0.31,-0.31 c 0.88,-0.87 2.24,-2.22 3.12,-3.53 v 0 c 0,0 0.67,-0.91 1.08,-2.4 0.06,-0.24 0.13,-0.64 0.19,-1.22 v 0.01 c 0.08,-0.61 0.14,-2.34 0.04,-3.89 z"
   id="path39" />
		<path
   class="st0"
   d="m 97.83,121.24 c -0.96,0 -1.68,0.78 -1.68,1.7 0,0.4 0.18,0.8 0.48,1.1 -0.2,-0.06 -0.4,-0.1 -0.6,-0.1 -1.18,0 -2.12,0.96 -2.12,2.12 0,1.18 0.94,2.12 2.12,2.12 0.2,0 0.38,-0.04 0.56,-0.08 -0.46,1.56 -1.92,2.56 -3.52,2.56 -3.12,0 -4.36,-3.36 -4.48,-4.16 0.24,0.86 1.04,1.52 2,1.52 1.16,0 2.1,-0.94 2.1,-2.1 0,-1.16 -0.94,-2.1 -2.1,-2.1 -0.22,0 -0.42,0.06 -0.62,0.12 0.44,-0.4 0.72,-0.94 0.72,-1.58 0,-1.16 -0.94,-2.08 -2.1,-2.08 -1.16,0 -2.1,0.92 -2.1,2.08 0,0.64 0.3,1.2 0.74,1.6 -0.22,-0.08 -0.44,-0.14 -0.68,-0.14 -1.16,0 -2.1,0.94 -2.1,2.1 0,1.16 0.94,2.1 2.1,2.1 0.96,0 1.76,-0.66 2,-1.52 -0.12,0.96 -1.88,4.16 -4.5,4.16 -1.74,0 -3.14,-1.06 -3.54,-2.56 0.18,0.04 0.36,0.08 0.56,0.08 1.16,0 2.12,-0.94 2.12,-2.12 0,-1.16 -0.96,-2.12 -2.12,-2.12 -0.22,0 -0.42,0.04 -0.6,0.1 0.3,-0.3 0.48,-0.7 0.48,-1.1 0,-0.92 -0.72,-1.7 -1.7,-1.7 -0.82,0 -1.06,0.2 -1.06,0.2 0.44,1.74 0.96,5.22 1.04,5.7 l 1.46,9.52 h 15.72 c 0,0 0.02,-0.16 0.04,-0.28 l 1.42,-9.24 c 0.32,-2.16 0.7,-4.43 1.02,-5.7 0,0 -0.24,-0.2 -1.06,-0.2 z"
   id="path40" />
		<path
   class="st0"
   d="m 127.54,121.24 c -0.96,0 -1.68,0.78 -1.68,1.7 0,0.4 0.18,0.8 0.48,1.1 -0.2,-0.06 -0.4,-0.1 -0.6,-0.1 -1.18,0 -2.12,0.96 -2.12,2.12 0,1.18 0.94,2.12 2.12,2.12 0.2,0 0.38,-0.04 0.56,-0.08 -0.46,1.56 -1.92,2.56 -3.52,2.56 -3.12,0 -4.36,-3.36 -4.48,-4.16 0.24,0.86 1.04,1.52 2,1.52 1.16,0 2.1,-0.94 2.1,-2.1 0,-1.16 -0.94,-2.1 -2.1,-2.1 -0.22,0 -0.42,0.06 -0.62,0.12 0.44,-0.4 0.72,-0.94 0.72,-1.58 0,-1.16 -0.94,-2.08 -2.1,-2.08 -1.16,0 -2.1,0.92 -2.1,2.08 0,0.64 0.3,1.2 0.74,1.6 -0.22,-0.08 -0.44,-0.14 -0.68,-0.14 -1.16,0 -2.1,0.94 -2.1,2.1 0,1.16 0.94,2.1 2.1,2.1 0.96,0 1.76,-0.66 2,-1.52 -0.12,0.96 -1.88,4.16 -4.5,4.16 -1.74,0 -3.14,-1.06 -3.54,-2.56 0.18,0.04 0.36,0.08 0.56,0.08 1.16,0 2.12,-0.94 2.12,-2.12 0,-1.16 -0.96,-2.12 -2.12,-2.12 -0.22,0 -0.42,0.04 -0.6,0.1 0.3,-0.3 0.48,-0.7 0.48,-1.1 0,-0.92 -0.72,-1.7 -1.7,-1.7 -0.82,0 -1.06,0.2 -1.06,0.2 0.44,1.74 0.96,5.22 1.04,5.7 l 1.46,9.52 h 15.72 c 0,0 0.02,-0.16 0.04,-0.28 l 1.42,-9.24 c 0.32,-2.16 0.74,-4.57 1.02,-5.7 0,0 -0.24,-0.2 -1.06,-0.2 z"
   id="path41" />
		<path
   class="st0"
   d="m 113.86,140.26 c -1.06,0 -1.85,0.86 -1.85,1.88 0,0.44 0.2,0.88 0.53,1.21 -0.22,-0.07 -0.44,-0.11 -0.66,-0.11 -1.3,0 -2.34,1.06 -2.34,2.34 0,1.3 1.04,2.34 2.34,2.34 0.22,0 0.42,-0.04 0.62,-0.09 -0.51,1.72 -2.12,2.82 -3.88,2.82 -3.44,0 -4.81,-3.71 -4.94,-4.59 0.26,0.95 1.15,1.68 2.21,1.68 1.28,0 2.32,-1.04 2.32,-2.32 0,-1.28 -1.04,-2.32 -2.32,-2.32 -0.24,0 -0.46,0.07 -0.68,0.13 0.49,-0.44 0.79,-1.04 0.79,-1.74 0,-1.28 -1.04,-2.29 -2.32,-2.29 -1.28,0 -2.32,1.01 -2.32,2.29 0,0.71 0.33,1.32 0.82,1.76 -0.24,-0.09 -0.48,-0.15 -0.75,-0.15 -1.28,0 -2.32,1.04 -2.32,2.32 0,1.28 1.04,2.32 2.32,2.32 1.06,0 1.94,-0.73 2.21,-1.68 -0.13,1.06 -2.07,4.59 -4.96,4.59 -1.92,0 -3.46,-1.17 -3.9,-2.82 0.2,0.04 0.4,0.09 0.62,0.09 1.28,0 2.34,-1.04 2.34,-2.34 0,-1.28 -1.06,-2.34 -2.34,-2.34 -0.24,0 -0.46,0.04 -0.66,0.11 0.33,-0.33 0.53,-0.77 0.53,-1.21 0,-1.01 -0.79,-1.88 -1.88,-1.88 -0.9,0 -1.17,0.22 -1.17,0.22 0.49,1.92 1.06,5.76 1.15,6.29 l 1.61,10.5 h 17.34 c 0,0 0.02,-0.18 0.04,-0.31 l 1.57,-10.19 c 0.35,-2.38 0.8,-5.05 1.12,-6.29 -0.03,0 -0.29,-0.22 -1.19,-0.22 z"
   id="path42" />
	</g>
	<g
   id="g61">
		<path
   class="st0"
   d="m 63.28,318.79 h -5.16 c -0.07,6.74 -0.14,13.42 -0.14,24.7 0,5.99 0.41,9.36 2.41,11.83 1.93,2.41 5.43,3.44 10.39,3.44 4.82,0 8.53,-1.17 10.73,-4.06 2,-2.62 2.06,-6.74 2.13,-13.28 l 0.14,-22.63 H 77.8 v -4.33 h 16.65 v 4.33 h -5.3 l -0.14,26.08 c 0,5.5 -0.62,9.49 -3.78,13.35 -2.75,3.37 -7.84,5.23 -14.65,5.23 -8.39,0 -13,-2.13 -15.82,-5.99 -2.27,-3.1 -2.68,-6.47 -2.68,-14.52 0,-7.84 0.07,-16.79 0.14,-24.15 h -5.57 v -4.33 H 63.3 v 4.33 z"
   id="path43" />
		<path
   class="st0"
   d="m 122.22,358.28 h 4.54 c 0,-5.5 0.28,-11.28 0.28,-16.99 0,-3.44 -0.14,-10.32 -8.05,-10.32 -5.02,0 -10.53,3.03 -10.53,12.66 l -0.14,14.65 h 5.16 v 4.33 H 98.07 v -4.33 h 4.54 l 0.28,-26.83 h -5.71 v -4.33 h 11.35 c 0,1.38 -0.07,3.3 -0.21,4.27 l -0.55,3.58 h 0.14 c 1.51,-5.37 7.22,-8.67 12.59,-8.67 9.77,0 12.18,6.6 12.18,13.35 0,6.05 -0.27,13.14 -0.27,18.65 h 5.23 v 4.33 h -15.41 v -4.35 z"
   id="path44" />
		<path
   class="st0"
   d="m 147.88,331.45 h -6.47 v -4.33 h 12.11 l -0.28,31.17 h 5.64 v 4.33 h -16.92 v -4.33 h 5.64 z m 2.14,-22.29 c 2.34,0 4.27,1.93 4.27,4.27 0,2.34 -1.93,4.27 -4.27,4.27 -2.34,0 -4.27,-1.93 -4.27,-4.27 0,-2.35 1.93,-4.27 4.27,-4.27 z"
   id="path45" />
		<path
   class="st0"
   d="m 159.08,327.12 h 14.59 v 4.33 h -4.27 l 8.19,22.77 c 0.34,0.96 0.55,2 0.76,3.03 h 0.14 c 0.21,-1.03 0.41,-2.06 0.76,-3.03 l 8.39,-22.77 h -4.61 v -4.33 h 14.17 v 4.33 h -3.92 l -12.25,31.17 h -5.64 l -12.32,-31.17 h -3.99 z"
   id="path46" />
		<path
   class="st0"
   d="m 205.2,345.35 c 0.21,7.29 3.37,13.42 13.48,13.42 3.85,0 7.7,-1.17 10.66,-2.68 l -0.21,4.88 c -2.61,1.31 -8.12,2.48 -11.7,2.48 -11.21,0 -18.16,-6.12 -18.16,-18.51 0,-10.46 5.64,-18.64 16.44,-18.64 14.04,0 15.34,12.73 15.34,19.06 H 205.2 Z m 19.95,-4.34 c 0,-5.57 -3.51,-10.39 -9.43,-10.39 -6.05,0 -10.18,4.54 -10.52,10.39 z"
   id="path47" />
		<path
   class="st0"
   d="m 241.94,331.45 h -6.05 v -4.33 h 11.7 v 1.93 c 0,2.06 -0.41,6.26 -0.76,9.15 h 0.07 0.14 c 1.38,-5.23 3.23,-11.7 12.04,-11.7 0.48,0 3.3,0.28 3.58,0.55 l -0.55,5.09 c -0.96,-0.34 -2.48,-0.55 -3.85,-0.55 -7.29,0 -10.53,7.16 -10.66,13.42 l -0.28,13.28 h 5.99 v 4.33 h -16.65 v -4.33 h 5.02 z"
   id="path48" />
		<path
   class="st0"
   d="m 291.04,336.95 h -5.09 l -0.28,-5.02 c -1.31,-1.1 -4.61,-1.31 -6.26,-1.31 -3.58,0 -8.19,1.17 -8.19,5.44 0,3.85 3.44,5.02 8.67,5.92 9.01,1.51 12.8,4.27 12.8,10.11 0,6.33 -4.27,11.35 -14.52,11.35 -3.85,0 -9.97,-0.96 -12.18,-2.13 l -0.27,-9.08 h 5.09 l 0.27,5.3 c 2.13,1.03 5.71,1.58 8.05,1.58 3.72,0 8.19,-1.58 8.19,-5.92 0,-3.51 -3.65,-4.75 -7.5,-5.57 -9.49,-2.06 -14.24,-3.72 -14.24,-10.66 0,-5.71 3.79,-10.66 13.97,-10.66 2.96,0 8.46,0.96 11.21,2.13 z"
   id="path49" />
		<path
   class="st0"
   d="m 304.08,331.45 h -6.47 v -4.33 h 12.11 l -0.28,31.17 h 5.64 v 4.33 h -16.92 v -4.33 h 5.64 z m 2.14,-22.29 c 2.34,0 4.27,1.93 4.27,4.27 0,2.34 -1.93,4.27 -4.27,4.27 -2.34,0 -4.27,-1.93 -4.27,-4.27 0,-2.35 1.93,-4.27 4.27,-4.27 z"
   id="path50" />
		<path
   class="st0"
   d="m 317.63,327.12 h 5.71 l 0.27,-8.67 5.64,-0.34 -0.27,9.01 h 11.15 v 4.33 h -11.22 c -0.14,5.92 -0.27,11.9 -0.27,17.82 0,5.09 0,9.5 5.44,9.5 2.89,0 5.5,-0.83 7.02,-1.44 l -0.21,4.47 c -1.79,0.89 -5.09,1.65 -7.98,1.65 -9.91,0 -9.91,-7.09 -9.91,-11.63 0,-4.34 0.21,-15.21 0.28,-20.37 h -5.64 v -4.33 z"
   id="path51" />
		<path
   class="st0"
   d="m 342.99,327.12 h 15 v 4.33 h -4.47 l 8.46,22.08 c 0.41,1.24 0.83,2.89 0.96,3.72 h 0.14 c 0.14,-0.83 0.55,-2.48 0.96,-3.72 l 7.91,-22.08 h -5.02 v -4.33 h 14.17 v 4.33 h -3.92 l -10.87,29.93 c -5.02,13.97 -9.08,19.33 -18.03,19.33 -1.72,0 -3.16,-0.27 -4.2,-0.62 v -4.68 c 0.83,0.28 2.61,0.62 3.99,0.62 4.06,0 8.26,-2.48 10.94,-8.94 l 1.17,-2.89 -13,-32.75 h -4.2 v -4.33 z"
   id="path52" />
		<path
   class="st0"
   d="m 48.16,290.41 h 5.66 v 6.56 c 2.21,1.31 6.42,1.79 9.46,1.79 6.9,0 11.46,-3.18 11.46,-8.98 0,-12.91 -26.52,-5.25 -26.52,-22.58 0,-5.87 3.45,-13.74 17.88,-13.74 3.52,0 9.94,0.9 12.98,2.28 v 9.74 H 73.7 v -6.01 c -1.8,-0.76 -5.8,-1.31 -8.08,-1.31 -5.18,0 -11.05,2 -11.05,8.36 0,12.29 26.52,4.63 26.52,22.44 0,10.63 -9.12,14.5 -18.44,14.5 -7.94,0 -11.81,-1.86 -14.5,-2.42 v -10.63 z"
   id="path53" />
		<path
   class="st0"
   d="m 85.46,267 h 5.73 l 0.28,-8.7 5.66,-0.34 -0.28,9.04 h 11.19 v 4.35 H 96.78 c -0.14,5.94 -0.28,11.95 -0.28,17.88 0,5.11 0,9.53 5.45,9.53 2.9,0 5.52,-0.83 7.04,-1.45 l -0.21,4.49 c -1.79,0.9 -5.11,1.66 -8.01,1.66 -9.94,0 -9.94,-7.11 -9.94,-11.67 0,-4.35 0.21,-15.26 0.28,-20.44 H 85.45 V 267 Z"
   id="path54" />
		<path
   class="st0"
   d="m 129.29,266.17 c 10.84,0 17.26,7.46 17.26,17.68 0,11.33 -6.42,19.61 -17.26,19.61 -10.84,0 -17.26,-7.46 -17.26,-17.67 0,-11.33 6.42,-19.62 17.26,-19.62 z m 0,32.59 c 7.6,0 11.33,-6.21 11.33,-13.95 0,-7.73 -3.73,-13.95 -11.33,-13.95 -7.59,0 -11.32,6.21 -11.32,13.95 0,7.74 3.73,13.95 11.32,13.95 z"
   id="path55" />
		<path
   class="st0"
   d="m 181,301.73 c -2.76,0.83 -6.35,1.73 -10.29,1.73 -14.09,0 -18.58,-9.32 -18.58,-18.64 0,-13.6 9.87,-18.64 17.82,-18.64 3.94,0 7.87,0.48 11.53,1.79 v 9.32 h -5.11 v -5.59 c -1.52,-0.55 -4.35,-0.83 -5.94,-0.83 -10.29,0 -12.36,8.15 -12.36,13.95 0,1.93 0.28,13.95 13.53,13.95 3.52,0 6.35,-0.97 9.67,-2 z"
   id="path56" />
		<path
   class="st0"
   d="m 191.37,253.88 h -6.91 v -4.35 h 12.57 l -0.14,33.14 13.6,-11.19 v -0.14 h -4.97 V 267 H 221 v 4.35 h -3.66 l -14.78,12.02 16.09,14.92 h 3.87 v 4.35 h -15.47 v -4.35 h 4.28 v -0.14 l -14.43,-13.75 -0.14,13.88 h 4.7 v 4.35 h -15.47 v -4.35 h 5.11 z"
   id="path57" />
		<path
   class="st0"
   d="m 231.63,253.88 h -6.91 v -4.35 h 12.57 l -0.07,18.71 c 0,1.59 -0.41,5.11 -0.69,6.63 h 0.14 c 1.52,-5.39 7.25,-8.7 12.64,-8.7 9.81,0 12.22,6.63 12.22,13.39 0,6.08 -0.28,13.19 -0.28,18.71 h 5.25 v 4.35 h -15.47 v -4.35 h 4.56 c 0,-5.53 0.27,-11.33 0.27,-17.06 0,-3.45 -0.14,-10.36 -8.08,-10.36 -5.04,0 -10.57,3.04 -10.57,12.7 L 237,298.26 h 5.25 v 4.35 h -16.02 v -4.35 h 5.11 z"
   id="path58" />
		<path
   class="st0"
   d="m 287.53,266.17 c 10.84,0 17.26,7.46 17.26,17.68 0,11.33 -6.42,19.61 -17.26,19.61 -10.84,0 -17.26,-7.46 -17.26,-17.67 0,-11.33 6.42,-19.62 17.26,-19.62 z m 0,32.59 c 7.6,0 11.32,-6.21 11.32,-13.95 0,-7.73 -3.73,-13.95 -11.32,-13.95 -7.6,0 -11.32,6.21 -11.32,13.95 -0.01,7.74 3.72,13.95 11.32,13.95 z"
   id="path59" />
		<path
   class="st0"
   d="m 313.99,253.88 h -6.91 v -4.35 h 12.57 l -0.28,48.75 h 5.66 v 4.35 H 308.6 v -4.35 h 5.11 z"
   id="path60" />
		<path
   class="st0"
   d="m 330.07,298.28 h 4.56 l 0.27,-26.93 h -5.73 V 267 h 11.39 c 0,1.38 -0.07,3.32 -0.21,4.28 l -0.55,3.59 h 0.14 c 1.52,-5.39 7.25,-8.7 12.64,-8.7 6.49,0 9.87,3.73 10.77,8.35 h 0.14 c 0.69,-1.52 2.9,-8.35 12.08,-8.35 9.8,0 12.22,6.63 12.22,13.39 0,6.08 -0.28,13.19 -0.28,18.71 h 5.25 v 4.35 H 377.3 v -4.35 h 4.56 c 0.07,-5.8 0.27,-11.53 0.27,-17.26 0,-5.18 -1.11,-10.15 -7.73,-10.15 -4.63,0 -10.15,3.04 -10.22,12.7 l -0.14,14.71 h 5.11 v 4.35 h -15.54 v -4.35 h 4.55 c 0.07,-5.8 0.28,-11.53 0.28,-17.26 0,-5.18 -1.1,-10.15 -7.73,-10.15 -4.63,0 -10.15,3.04 -10.22,12.7 l -0.14,14.71 h 5.18 v 4.35 h -15.47 v -4.34 z"
   id="path61" />
	</g>
</g>

</svg>
